<svg version="1.1" xmlns="http://www.w3.org/2000/svg" width="330" height="330">
<circle cx="21" cy="21" r="20" fill="red" />
<circle cx="21" cy="61" r="20" fill="blue" />
<circle cx="21" cy="101" r="20" fill="red" />
<circle cx="21" cy="141" r="20" fill="blue" />
<circle cx="21" cy="181" r="20" fill="red" />
<circle cx="21" cy="221" r="20" fill="blue" />
<circle cx="21" cy="261" r="20" fill="red" />
<circle cx="21" cy="301" r="20" fill="blue" />
<circle cx="61" cy="21" r="20" fill="blue" />
<circle cx="61" cy="61" r="20" fill="red" />
<circle cx="61" cy="101" r="20" fill="blue" />
<circle cx="61" cy="141" r="20" fill="red" />
<circle cx="61" cy="181" r="20" fill="blue" />
<circle cx="61" cy="221" r="20" fill="red" />
<circle cx="61" cy="261" r="20" fill="blue" />
<circle cx="61" cy="301" r="20" fill="red" />
<circle cx="101" cy="21" r="20" fill="red" />
<circle cx="101" cy="61" r="20" fill="blue" />
<circle cx="101" cy="101" r="20" fill="red" />
<circle cx="101" cy="141" r="20" fill="blue" />
<circle cx="101" cy="181" r="20" fill="red" />
<circle cx="101" cy="221" r="20" fill="blue" />
<circle cx="101" cy="261" r="20" fill="red" />
<circle cx="101" cy="301" r="20" fill="blue" />
<circle cx="141" cy="21" r="20" fill="blue" />
<circle cx="141" cy="61" r="20" fill="red" />
<circle cx="141" cy="101" r="20" fill="blue" />
<circle cx="141" cy="141" r="20" fill="red" />
<circle cx="141" cy="181" r="20" fill="blue" />
<circle cx="141" cy="221" r="20" fill="red" />
<circle cx="141" cy="261" r="20" fill="blue" />
<circle cx="141" cy="301" r="20" fill="red" />
<circle cx="181" cy="21" r="20" fill="red" />
<circle cx="181" cy="61" r="20" fill="blue" />
<circle cx="181" cy="101" r="20" fill="red" />
<circle cx="181" cy="141" r="20" fill="blue" />
<circle cx="181" cy="181" r="20" fill="red" />
<circle cx="181" cy="221" r="20" fill="blue" />
<circle cx="181" cy="261" r="20" fill="red" />
<circle cx="181" cy="301" r="20" fill="blue" />
<circle cx="221" cy="21" r="20" fill="blue" />
<circle cx="221" cy="61" r="20" fill="red" />
<circle cx="221" cy="101" r="20" fill="blue" />
<circle cx="221" cy="141" r="20" fill="red" />
<circle cx="221" cy="181" r="20" fill="blue" />
<circle cx="221" cy="221" r="20" fill="red" />
<circle cx="221" cy="261" r="20" fill="blue" />
<circle cx="221" cy="301" r="20" fill="red" />
<circle cx="261" cy="21" r="20" fill="red" />
<circle cx="261" cy="61" r="20" fill="blue" />
<circle cx="261" cy="101" r="20" fill="red" />
<circle cx="261" cy="141" r="20" fill="blue" />
<circle cx="261" cy="181" r="20" fill="red" />
<circle cx="261" cy="221" r="20" fill="blue" />
<circle cx="261" cy="261" r="20" fill="red" />
<circle cx="261" cy="301" r="20" fill="blue" />
<circle cx="301" cy="21" r="20" fill="blue" />
<circle cx="301" cy="61" r="20" fill="red" />
<circle cx="301" cy="101" r="20" fill="blue" />
<circle cx="301" cy="141" r="20" fill="red" />
<circle cx="301" cy="181" r="20" fill="blue" />
<circle cx="301" cy="221" r="20" fill="red" />
<circle cx="301" cy="261" r="20" fill="blue" />
<circle cx="301" cy="301" r="20" fill="red" />
​
</svg>
