 <svg version="1.1" xmlns="http://www.w3.org/2000/svg" height="180" width="350">
   <!-- Conjunto A-->
    <ellipse stroke="black" stroke-width="1" fill="#00BB22C0"
       cx="35"
       cy="50"
       rx="20"
       ry="40" />
    <text x="5" y="20" font-family="Verdana" font-size="20" fill="black">A</text>
    <text x="35" y="35 " text-anchor="middle" font-family="Verdana" font-size="16" fill="black">0</text>
    <text x="35" y="70" text-anchor="middle"  font-family="Verdana" font-size="16" fill="black">1</text>
   <!-- Conjunto B-->

    <rect stroke="black" stroke-width="1" fill="#0022BBC0" x="60" y="100" width="180" height="30" />
        <text x="40" y="120" font-family="Verdana" font-size="20" fill="black">B</text>
          <text x="100" y="120" text-anchor="middle"  font-family="Verdana" font-size="16" fill="black">a</text>
          <text x="150" y="120" text-anchor="middle"  font-family="Verdana" font-size="16" fill="black">b</text>
          <text x="200" y="120" text-anchor="middle"  font-family="Verdana" font-size="16" fill="black">c</text>
    <!-- Linhas -->
    <path stroke="#00BB2290" d="M 60,35 L 240,35" stroke-dasharray="4"/>
    <path stroke="#00BB2290" d="M 60,70 L 240,70" stroke-dasharray="4"/>

    <path stroke="#0022BB90" d="M 100,120 L 100,15" stroke-dasharray="4"/>
    <path stroke="#0022BB90" d="M 150,120 L 150,15" stroke-dasharray="4"/>
    <path stroke="#0022BB90" d="M 200,120 L 200,15" stroke-dasharray="4"/>

    <!-- Pares -->

    <text x="100" y="40" text-anchor="middle"  font-family="Verdana" font-size="16" fill="black">(0,a)</text>
    <text x="150" y="40" text-anchor="middle"  font-family="Verdana" font-size="16" fill="black">(0,b)</text>
    <text x="200" y="40" text-anchor="middle"  font-family="Verdana" font-size="16" fill="black">(0,c)</text> 


    <text x="100" y="75" text-anchor="middle"  font-family="Verdana" font-size="16" fill="black">(1,a)</text>
    <text x="150" y="75" text-anchor="middle"  font-family="Verdana" font-size="16" fill="black">(1,b)</text>
    <text x="200" y="75" text-anchor="middle"  font-family="Verdana" font-size="16" fill="black">(1,c)</text> 

    <!-- conjuntão -->
        <rect stroke="red" stroke-width="1" fill="none" x="70" y="20" width="160" height="65" rx="5" ry="5" />
        <text font-family="Verdana" font-size="20" fill="red" x="240" y="35">A&#215;B</text>


</svg>