<svg version="1.1" xmlns="http://www.w3.org/2000/svg" height="75" width="300"> 
    <path d="M 20,30 L 280,30" fill="none" stroke="black" stroke-width="2"/>
    <polygon points="280,25 280,35 290,30" />
    <text text-anchor="middle" x="150" y="15" font-family="Verdana" font-size="20" >0</text>
 
    <text text-anchor="end" x="50" y="15" font-family="Verdana" font-size="20" >-1</text>
  
    <text text-anchor="middle" x="250" y="15" font-family="Verdana" font-size="20" >1</text>

    <path  d="M 150,22 L 150,38 M 250,22 L 250,38  M 50,22 L 50,38" fill="none" stroke="black" stroke-width="2"/> 

    <text text-anchor="middle" x="200" y="18" font-family="Verdana" font-size="16" >&#189;</text>
    <text text-anchor="middle" x="183" y="18" font-family="Verdana" font-size="16" >&#8531;</text>
    <text text-anchor="middle" x="233" y="18" font-family="Verdana" font-size="16" >&#8538;</text>
    <text text-anchor="middle" x="62" y="18" font-family="Verdana" font-size="16" >-&#8542;</text>
    <text text-anchor="middle" x="110" y="18" font-family="Verdana" font-size="16" >-&#8534;</text>
        <!-- Path for each fraction -->
        <path d="M 200,26 L 200,34" fill="none" stroke="black" stroke-width="2"/>
        <path d="M 183,26 L 183,34" fill="none" stroke="black" stroke-width="2"/>
        <path d="M 233,26 L 233,34" fill="none" stroke="black" stroke-width="2"/>
        <path d="M 62,26 L 62,34" fill="none" stroke="black" stroke-width="2"/>
        <path d="M 110,26 L 110,34" fill="none" stroke="black" stroke-width="2"/> 
    
   
 </svg>